<?xml version="1.0" encoding="iso-8859-1"?>
<!-- Uploaded to: SVG Repo, www.svgrepo.com, Generator: SVG Repo Mixer Tools -->
<svg fill="lightgray" height="800px" width="800px" version="1.1" id="Layer_1" xmlns="http://www.w3.org/2000/svg" xmlns:xlink="http://www.w3.org/1999/xlink"
	 viewBox="0 0 512 512" xml:space="preserve">
<g>
	<g>
		<path d="M422.802,401.876c4.643,0,8.404-3.763,8.404-8.404V39.778C431.206,17.844,413.361,0,391.428,0H120.572
			C98.639,0,80.794,17.844,80.794,39.778v432.444c0,21.934,17.845,39.778,39.778,39.778h270.856
			c21.933,0,39.778-17.844,39.778-39.778v-45.133c0-4.641-3.762-8.404-8.404-8.404s-8.404,3.763-8.404,8.404v45.133
			c0,12.666-10.304,22.969-22.969,22.969H120.572c-12.666,0-22.969-10.304-22.969-22.969V39.778
			c0-12.666,10.304-22.969,22.969-22.969h270.856c12.666,0,22.969,10.304,22.969,22.969v353.694
			C414.397,398.113,418.159,401.876,422.802,401.876z"/>
	</g>
</g>
<g>
	<g>
		<path d="M367.311,33.616h-222.62c-16.695,0-30.279,13.582-30.279,30.279v40.321c0,4.641,3.762,8.404,8.404,8.404
			s8.404-3.763,8.404-8.404V63.895c0-7.427,6.043-13.47,13.47-13.47h222.621c7.427,0,13.469,6.043,13.469,13.47v384.21
			c0,7.427-6.042,13.47-13.469,13.47H144.691c-7.428,0-13.47-6.043-13.47-13.47V137.509c-0.001-4.641-3.763-8.404-8.405-8.404
			s-8.404,3.763-8.404,8.404v310.596c0,16.695,13.584,30.279,30.279,30.279h222.621c16.694,0,30.278-13.582,30.278-30.279V63.895
			C397.589,47.199,384.006,33.616,367.311,33.616z"/>
	</g>
</g>
<g>
	<g>
		<path d="M349.95,192.547c-2.381-3.985-7.544-5.28-11.526-2.897c-3.984,2.383-5.28,7.544-2.897,11.527
			c6.788,11.346,8.363,25.237,4.552,40.174c-7.806,30.59-37.594,62.783-84.076,90.979c-37.979-23.027-64.763-48.551-77.606-74.007
			c-10.448-20.711-11.3-40.719-2.397-56.337c11.926-20.922,42.596-33.223,75.941-14.818c2.528,1.395,5.594,1.395,8.122,0
			c17.976-9.922,37.611-11.609,53.871-4.634c4.271,1.831,9.207-0.146,11.038-4.411c1.83-4.266-0.145-9.208-4.411-11.038
			c-19.807-8.496-43.103-7.275-64.56,3.25c-17.307-8.482-35.994-10.974-53.087-7.002c-18.011,4.185-32.754,14.956-41.517,30.326
			c-20.19,35.416-8.644,97.443,90.342,155.702c1.316,0.773,2.788,1.161,4.263,1.161s2.947-0.388,4.263-1.161
			c67.691-39.84,89.623-78.467,96.102-103.857C361.308,226.134,359.091,207.822,349.95,192.547z"/>
	</g>
</g>
</svg>