<?xml version="1.0" encoding="utf-8"?>
<svg version="1.1" fill="lightgray" id="Layer_1" xmlns="http://www.w3.org/2000/svg" xmlns:xlink="http://www.w3.org/1999/xlink" x="0px" y="0px"
	 viewBox="0 0 512 512" style="enable-background:new 0 0 512 512;" xml:space="preserve">
<g>
	<path d="M153.6,332.8v128h204.8v-128H153.6z M409.6,313.25V460.8c0,28.3-22.9,51.2-51.2,51.2H153.6c-28.28,0-51.2-22.9-51.2-51.2
		V313.25c-15.7-14.08-25.6-34.5-25.6-57.25v-76.8c0-42.4,34.4-76.8,76.8-76.8h204.8c42.43,0,76.8,34.4,76.8,76.8V256
		C435.2,278.75,425.33,299.2,409.6,313.25z M153.6,153.6c-14.13,0-25.6,11.47-25.6,25.6V256c0,14.15,11.48,25.6,25.6,25.6h204.8
		c14.15,0,25.6-11.45,25.6-25.6v-76.8c0-14.13-11.45-25.6-25.6-25.6H153.6z M281.6,281.6h-51.2V256c0-14.13,11.48-25.6,25.6-25.6
		c14.15,0,25.6,11.48,25.6,25.6V281.6z M281.6,332.8v25.6c0,14.15-11.45,25.6-25.6,25.6c-14.13,0-25.6-11.45-25.6-25.6v-25.6H281.6z
		 M166.4,0c21.23,0,38.4,17.2,38.4,38.4v76.8c0,21.23-17.18,38.4-38.4,38.4c-21.2,0-38.4-17.18-38.4-38.4V38.4
		C128,17.2,145.2,0,166.4,0z M345.6,0C366.83,0,384,17.2,384,38.4v76.8c0,21.23-17.17,38.4-38.4,38.4c-21.2,0-38.4-17.18-38.4-38.4
		V38.4C307.2,17.2,324.4,0,345.6,0z"/>
</g>
</svg>
