<svg class="svg-icon" style="width: 1em; height: 1em;vertical-align: middle;fill: lightgray;overflow: hidden;" viewBox="0 0 1024 1024" version="1.1" xmlns="http://www.w3.org/2000/svg"><path d="M313.1 256.2v-53.5c0-29.5 24-53.5 53.5-53.5h267.5c29.5 0 53.5 24 53.5 53.5v53.5h107c29.5 0 53.5 24 53.5 53.5V711c0 29.5-24 53.5-53.5 53.5H206.1c-29.5 0-53.5-24-53.5-53.5V309.7c0-29.5 24-53.5 53.5-53.5h107z m321 0v-26.8c0-14.8-12-26.8-26.8-26.8h-214c-14.8 0-26.8 12-26.8 26.8v26.8h267.6z m-321 53.5h-80.3c-14.8 0-26.8 12-26.8 26.8v347.8c0 14.8 12 26.8 26.8 26.8h535c14.8 0 26.8-12 26.8-26.8V336.4c0-14.8-12-26.8-26.8-26.8H313.1z m321.1 166.4H366.6v26.8c0 14.8-12 26.8-26.8 26.8s-26.8-12-26.8-26.8v-26.8H206v-53.5h107v-26.8c0-14.8 12-26.8 26.8-26.8s26.8 12 26.8 26.8v26.8h267.5v-26.8c0-14.8 12-26.8 26.8-26.8s26.8 12 26.8 26.8v26.8h107v53.5h-107v26.8c0 14.8-12 26.8-26.8 26.8s-26.8-12-26.8-26.8v-26.8z"  /></svg>