<svg xmlns="http://www.w3.org/2000/svg" version="1.1" fill="lightgray"  width="256" height="256" viewBox="0 0 256 256" xml:space="preserve">

<defs>
</defs>
<g style="stroke: none; stroke-width: 0; stroke-dasharray: none; stroke-linecap: butt; stroke-linejoin: miter; stroke-miterlimit: 10; opacity: 1;" transform="translate(1.4065934065934016 1.4065934065934016) scale(2.81 2.81)" >
	<path d="M 45 74.962 c -0.828 0 -1.5 -0.672 -1.5 -1.5 c 0 -0.865 -0.799 -2.49 -2.327 -3.924 c -1.086 -1.018 -2.28 -1.646 -3.042 -1.596 c -0.719 0.043 -1.381 -0.435 -1.553 -1.143 c -0.974 -4.021 -3.21 -6.877 -6.647 -8.487 c -6.17 -2.892 -16.227 -1.633 -26.247 3.29 c -0.408 0.198 -0.883 0.204 -1.294 0.013 s -0.714 -0.559 -0.823 -0.999 C -2.81 42.933 1.958 28.15 16.143 15.421 c 0.341 -0.307 0.803 -0.439 1.255 -0.362 c 0.452 0.078 0.843 0.357 1.063 0.759 c 4.297 7.865 10.119 13.847 17.323 17.807 c 0.121 -1.145 0.037 -2.203 -0.251 -3.2 c -2.047 -2.506 -2.327 -5.235 -2.623 -8.118 l -0.041 -0.392 c -0.047 -0.458 0.119 -0.914 0.451 -1.234 c 0.331 -0.321 0.791 -0.47 1.25 -0.406 c 3.271 0.459 5.684 1.884 7.197 4.245 c 0.935 -0.635 1.948 -0.904 3.233 -0.904 s 2.298 0.269 3.233 0.904 c 1.514 -2.361 3.926 -3.787 7.198 -4.245 c 0.453 -0.064 0.917 0.085 1.249 0.406 c 0.332 0.32 0.499 0.775 0.451 1.234 l -0.04 0.386 c -0.296 2.885 -0.576 5.616 -2.624 8.124 c -0.289 0.997 -0.373 2.056 -0.252 3.2 c 7.205 -3.96 13.026 -9.942 17.323 -17.807 c 0.22 -0.402 0.611 -0.682 1.063 -0.759 c 0.452 -0.074 0.914 0.057 1.255 0.362 C 88.042 28.15 92.81 42.933 88.432 60.615 c -0.109 0.44 -0.411 0.807 -0.823 0.999 c -0.41 0.192 -0.888 0.187 -1.294 -0.013 c -10.021 -4.922 -20.078 -6.183 -26.247 -3.29 c -3.437 1.61 -5.674 4.466 -6.647 8.487 c -0.172 0.708 -0.834 1.184 -1.553 1.143 c -0.772 -0.06 -1.956 0.579 -3.042 1.596 c -1.527 1.434 -2.327 3.059 -2.327 3.924 C 46.5 74.29 45.828 74.962 45 74.962 z M 39.21 65.045 c 1.707 0.355 3.193 1.535 4.016 2.306 c 0.609 0.572 1.235 1.278 1.774 2.057 c 0.539 -0.779 1.165 -1.485 1.774 -2.057 c 0.822 -0.771 2.309 -1.951 4.016 -2.306 c 1.325 -4.403 4.014 -7.579 8.006 -9.45 c 6.716 -3.146 16.755 -2.195 27.137 2.508 c 3.214 -15.143 -0.953 -27.992 -12.708 -39.183 c -4.859 8.211 -11.391 14.365 -19.44 18.308 c -0.402 0.196 -0.873 0.204 -1.279 0.019 c -0.408 -0.185 -0.712 -0.542 -0.829 -0.975 c -0.697 -2.581 -0.689 -4.887 0.023 -7.051 c 0.062 -0.189 0.162 -0.364 0.293 -0.514 c 1.27 -1.462 1.671 -3.032 1.924 -5.006 c -1.882 0.667 -3.122 1.907 -3.839 3.811 c -0.188 0.499 -0.628 0.861 -1.154 0.95 c -0.529 0.085 -1.062 -0.11 -1.402 -0.52 c -0.935 -1.125 -1.474 -1.325 -2.522 -1.325 c -1.049 0 -1.587 0.2 -2.522 1.325 c -0.341 0.411 -0.876 0.605 -1.402 0.521 c -0.527 -0.089 -0.967 -0.451 -1.155 -0.951 c -0.717 -1.903 -1.957 -3.144 -3.839 -3.81 c 0.254 1.974 0.655 3.544 1.925 5.006 c 0.131 0.15 0.23 0.325 0.293 0.514 c 0.712 2.163 0.72 4.469 0.023 7.05 c -0.117 0.433 -0.42 0.79 -0.828 0.975 c -0.408 0.184 -0.878 0.177 -1.279 -0.019 c -8.05 -3.943 -14.582 -10.097 -19.441 -18.308 C 5.019 30.111 0.852 42.96 4.067 58.104 c 10.383 -4.704 20.423 -5.654 27.137 -2.508 C 35.196 57.466 37.885 60.642 39.21 65.045 z" style="stroke: none; stroke-width: 1; stroke-dasharray: none; stroke-linecap: butt; stroke-linejoin: miter; stroke-miterlimit: 10; fill-rule: nonzero; opacity: 1;" transform=" matrix(1 0 0 1 0 0) " stroke-linecap="round" />
</g>
</svg>